<mxfile host="app.diagrams.net" modified="2021-06-12T22:25:00.160Z" agent="5.0 (Windows NT 10.0; Win64; x64) AppleWebKit/537.36 (KHTML, like Gecko) Chrome/91.0.4472.101 Safari/537.36 Edg/91.0.864.48" etag="62wUKQ9Kfvf8fgVhrMn9" version="14.7.7" type="github">
  <diagram id="NPYjOUtkDDTUSV19O3E9" name="Page-1">
    <mxGraphModel dx="821" dy="502" grid="1" gridSize="10" guides="1" tooltips="1" connect="1" arrows="1" fold="1" page="1" pageScale="1" pageWidth="1100" pageHeight="850" math="0" shadow="0">
      <root>
        <mxCell id="0" />
        <mxCell id="1" parent="0" />
        <mxCell id="X5cJB58l0Eja5Me0La9I-2" style="edgeStyle=orthogonalEdgeStyle;rounded=0;orthogonalLoop=1;jettySize=auto;html=1;" edge="1" parent="1" source="X5cJB58l0Eja5Me0La9I-1">
          <mxGeometry relative="1" as="geometry">
            <mxPoint x="360" y="190" as="targetPoint" />
          </mxGeometry>
        </mxCell>
        <mxCell id="X5cJB58l0Eja5Me0La9I-4" value="Text" style="edgeLabel;html=1;align=center;verticalAlign=middle;resizable=0;points=[];" vertex="1" connectable="0" parent="X5cJB58l0Eja5Me0La9I-2">
          <mxGeometry x="0.0926" y="2" relative="1" as="geometry">
            <mxPoint x="-11" y="2" as="offset" />
          </mxGeometry>
        </mxCell>
        <mxCell id="X5cJB58l0Eja5Me0La9I-18" value="identifier,&lt;br&gt;boolean" style="edgeLabel;html=1;align=center;verticalAlign=middle;resizable=0;points=[];" vertex="1" connectable="0" parent="X5cJB58l0Eja5Me0La9I-2">
          <mxGeometry x="-0.0608" relative="1" as="geometry">
            <mxPoint as="offset" />
          </mxGeometry>
        </mxCell>
        <mxCell id="X5cJB58l0Eja5Me0La9I-1" value="Path" style="rounded=0;whiteSpace=wrap;html=1;" vertex="1" parent="1">
          <mxGeometry x="110" y="160" width="120" height="60" as="geometry" />
        </mxCell>
        <mxCell id="X5cJB58l0Eja5Me0La9I-7" value="" style="edgeStyle=orthogonalEdgeStyle;rounded=0;orthogonalLoop=1;jettySize=auto;html=1;" edge="1" parent="1" source="X5cJB58l0Eja5Me0La9I-3" target="X5cJB58l0Eja5Me0La9I-6">
          <mxGeometry relative="1" as="geometry">
            <Array as="points">
              <mxPoint x="550" y="190" />
              <mxPoint x="550" y="190" />
            </Array>
          </mxGeometry>
        </mxCell>
        <mxCell id="X5cJB58l0Eja5Me0La9I-19" value="compareOperator" style="edgeLabel;html=1;align=center;verticalAlign=middle;resizable=0;points=[];" vertex="1" connectable="0" parent="X5cJB58l0Eja5Me0La9I-7">
          <mxGeometry x="-0.0765" y="1" relative="1" as="geometry">
            <mxPoint as="offset" />
          </mxGeometry>
        </mxCell>
        <mxCell id="X5cJB58l0Eja5Me0La9I-10" value="" style="edgeStyle=orthogonalEdgeStyle;rounded=0;orthogonalLoop=1;jettySize=auto;html=1;exitX=0.25;exitY=0;exitDx=0;exitDy=0;entryX=0.75;entryY=1;entryDx=0;entryDy=0;" edge="1" parent="1" source="X5cJB58l0Eja5Me0La9I-8" target="X5cJB58l0Eja5Me0La9I-3">
          <mxGeometry relative="1" as="geometry">
            <mxPoint x="360" y="260" as="targetPoint" />
            <Array as="points">
              <mxPoint x="450" y="300" />
            </Array>
          </mxGeometry>
        </mxCell>
        <mxCell id="X5cJB58l0Eja5Me0La9I-17" value="identifier" style="edgeLabel;html=1;align=center;verticalAlign=middle;resizable=0;points=[];" vertex="1" connectable="0" parent="X5cJB58l0Eja5Me0La9I-10">
          <mxGeometry x="0.39" relative="1" as="geometry">
            <mxPoint as="offset" />
          </mxGeometry>
        </mxCell>
        <mxCell id="X5cJB58l0Eja5Me0La9I-12" value="" style="edgeStyle=orthogonalEdgeStyle;rounded=0;orthogonalLoop=1;jettySize=auto;html=1;exitX=0.25;exitY=1;exitDx=0;exitDy=0;entryX=0.25;entryY=0;entryDx=0;entryDy=0;" edge="1" parent="1" source="X5cJB58l0Eja5Me0La9I-3" target="X5cJB58l0Eja5Me0La9I-8">
          <mxGeometry relative="1" as="geometry" />
        </mxCell>
        <mxCell id="X5cJB58l0Eja5Me0La9I-15" value="&amp;nbsp;/&amp;nbsp;" style="edgeLabel;html=1;align=center;verticalAlign=middle;resizable=0;points=[];" vertex="1" connectable="0" parent="X5cJB58l0Eja5Me0La9I-12">
          <mxGeometry x="-0.0714" relative="1" as="geometry">
            <mxPoint as="offset" />
          </mxGeometry>
        </mxCell>
        <mxCell id="X5cJB58l0Eja5Me0La9I-16" value="slash" style="edgeLabel;html=1;align=center;verticalAlign=middle;resizable=0;points=[];" vertex="1" connectable="0" parent="X5cJB58l0Eja5Me0La9I-12">
          <mxGeometry x="-0.0714" relative="1" as="geometry">
            <mxPoint as="offset" />
          </mxGeometry>
        </mxCell>
        <mxCell id="X5cJB58l0Eja5Me0La9I-3" value="Operator" style="rounded=0;whiteSpace=wrap;html=1;" vertex="1" parent="1">
          <mxGeometry x="360" y="160" width="120" height="60" as="geometry" />
        </mxCell>
        <mxCell id="X5cJB58l0Eja5Me0La9I-6" value="compareTo" style="rounded=0;whiteSpace=wrap;html=1;" vertex="1" parent="1">
          <mxGeometry x="620" y="160" width="120" height="60" as="geometry" />
        </mxCell>
        <mxCell id="X5cJB58l0Eja5Me0La9I-21" value="" style="edgeStyle=orthogonalEdgeStyle;rounded=0;orthogonalLoop=1;jettySize=auto;html=1;" edge="1" parent="1" source="X5cJB58l0Eja5Me0La9I-8" target="X5cJB58l0Eja5Me0La9I-20">
          <mxGeometry relative="1" as="geometry" />
        </mxCell>
        <mxCell id="X5cJB58l0Eja5Me0La9I-8" value="PathSuffix" style="rounded=0;whiteSpace=wrap;html=1;" vertex="1" parent="1">
          <mxGeometry x="360" y="300" width="120" height="60" as="geometry" />
        </mxCell>
        <mxCell id="X5cJB58l0Eja5Me0La9I-23" value="" style="edgeStyle=orthogonalEdgeStyle;rounded=0;orthogonalLoop=1;jettySize=auto;html=1;" edge="1" parent="1" source="X5cJB58l0Eja5Me0La9I-20" target="X5cJB58l0Eja5Me0La9I-22">
          <mxGeometry relative="1" as="geometry" />
        </mxCell>
        <mxCell id="X5cJB58l0Eja5Me0La9I-20" value="CollectionFilterCall" style="rounded=0;whiteSpace=wrap;html=1;" vertex="1" parent="1">
          <mxGeometry x="360" y="440" width="120" height="60" as="geometry" />
        </mxCell>
        <mxCell id="X5cJB58l0Eja5Me0La9I-25" value="" style="edgeStyle=orthogonalEdgeStyle;rounded=0;orthogonalLoop=1;jettySize=auto;html=1;" edge="1" parent="1" source="X5cJB58l0Eja5Me0La9I-22" target="X5cJB58l0Eja5Me0La9I-24">
          <mxGeometry relative="1" as="geometry" />
        </mxCell>
        <mxCell id="X5cJB58l0Eja5Me0La9I-22" value="LambdaVariable" style="rounded=0;whiteSpace=wrap;html=1;" vertex="1" parent="1">
          <mxGeometry x="560" y="440" width="120" height="60" as="geometry" />
        </mxCell>
        <mxCell id="X5cJB58l0Eja5Me0La9I-24" value="Lambda arrow" style="rounded=0;whiteSpace=wrap;html=1;" vertex="1" parent="1">
          <mxGeometry x="760" y="440" width="120" height="60" as="geometry" />
        </mxCell>
      </root>
    </mxGraphModel>
  </diagram>
</mxfile>
